<?xml version="1.0"?>
<svg xmlns="http://www.w3.org/2000/svg" xmlns:xlink="http://www.w3.org/1999/xlink" version="1.1" id="Capa_1" x="0px" y="0px" viewBox="0 0 512 512" style="enable-background:new 0 0 512 512;" xml:space="preserve" width="512px" height="512px" class=""><g><path style="fill:#E9BC04" d="M446.446,133.723c-0.149-9.14-3.338-14.659-8.084-17.112c0.179,0.092,0.373,0.153,0.548,0.254  l-55.354-32.167c-5.216-3.031-12.505-2.096-19.793,2.111c-9.588,5.536-19.173,16.73-24.04,32.011  c-35.259,110.735-114.106,219.136-205.894,272.129c-29.359,16.95-44.193,34.567-69.95,37.736c-2.29,0.283-4.54,1.11-6.687,2.349  c-13.705,7.911-23.271,32.669-13.055,40.517c3.334,2.558,6.811,4.889,10.422,6.988l26.507,14.726  c-0.183-0.106-0.356-0.229-0.539-0.336c39.441,23.502,104.509,28.775,161.854-4.333c113.073-65.283,204.449-223.553,204.081-353.483  C446.461,134.652,446.46,134.178,446.446,133.723z" data-original="#EEBF00" class="active-path" data-old_color="#E0B401"/><g style="enable-background:new    ;">
	<path style="fill:#E9BC04" d="M383.556,84.698l55.353,32.168c-5.216-3.031-12.505-2.096-19.793,2.111l-55.352-32.168   C371.051,82.601,378.34,81.667,383.556,84.698z" data-original="#EEBF00" class="active-path" data-old_color="#E0B401"/>
	<path style="fill:#FED322;" d="M81.066,493.266L54.56,478.541c-3.611-2.099-7.088-4.43-10.422-6.988   c-10.216-7.848-0.65-32.607,13.055-40.517c2.147-1.239,4.398-2.066,6.687-2.349c25.756-3.169,40.591-20.785,69.95-37.736   c91.788-52.993,170.636-161.395,205.894-272.129c4.867-15.281,14.452-26.475,24.04-32.011l55.353,32.168   c-9.588,5.536-19.173,16.73-24.04,32.011C359.818,261.723,280.97,370.125,189.182,423.118   c-29.359,16.95-73.039,17.125-98.796,20.294c-2.29,0.282-4.541,1.11-6.687,2.349c-13.706,7.911-23.271,32.669-13.055,40.517   C73.978,488.836,77.454,491.167,81.066,493.266z" data-original="#FED322" class=""/>
	<path style="fill:#E9BC04" d="M419.116,118.977c13.507-7.798,27.019-4.355,27.33,14.746c0.014,0.453,0.016,0.929,0.017,1.39   c0.369,129.93-91.007,288.2-204.081,353.483c-62.429,36.043-134.037,26.615-171.737-2.319c-10.216-7.848-0.65-32.607,13.055-40.517   c2.147-1.239,4.398-2.066,6.687-2.349c25.756-3.169,69.437-3.344,98.796-20.294c91.788-52.993,170.636-161.395,205.894-272.129   C399.944,135.706,409.527,124.512,419.116,118.977z" data-original="#EEBF00" class="active-path" data-old_color="#E0B401"/>
</g><g>
	<path style="fill:#FED322;" d="M421.749,117.604c0.29-0.137,0.578-0.24,0.867-0.366c0.583-0.253,1.165-0.506,1.743-0.715   c0.343-0.123,0.68-0.215,1.021-0.323c0.518-0.164,1.035-0.33,1.547-0.457c0.356-0.089,0.705-0.148,1.057-0.219   c0.486-0.097,0.97-0.192,1.446-0.254c0.356-0.047,0.703-0.069,1.054-0.095c0.459-0.034,0.913-0.063,1.36-0.063   c0.348,0,0.688,0.019,1.028,0.039c0.433,0.026,0.859,0.065,1.279,0.126c0.332,0.048,0.658,0.109,0.982,0.179   c0.408,0.088,0.806,0.194,1.197,0.318c0.311,0.097,0.618,0.202,0.918,0.321c0.38,0.152,0.748,0.329,1.111,0.517   c0.179,0.092,0.373,0.153,0.548,0.254l-55.354-32.168c-5.216-3.031-12.505-2.096-19.793,2.111l55.353,32.168   C419.995,118.469,420.874,118.014,421.749,117.604z" data-original="#FED322" class=""/>
	<path style="fill:#FED322;" d="M78.106,491.471l-0.174,0.052l3.135,1.742c-0.183-0.106-0.356-0.229-0.539-0.336   C79.716,492.446,78.895,491.97,78.106,491.471L78.106,491.471z" data-original="#FED322" class=""/>
</g><g>
	<path style="fill:#E9BC04" d="M426.928,115.743c-0.512,0.127-1.029,0.293-1.547,0.457   C425.899,116.035,426.417,115.87,426.928,115.743z" data-original="#EEBF00" class="active-path" data-old_color="#E0B401"/>
	<path style="fill:#E9BC04" d="M429.43,115.269c-0.476,0.062-0.96,0.157-1.446,0.254   C428.47,115.426,428.955,115.331,429.43,115.269z" data-original="#EEBF00" class="active-path" data-old_color="#E0B401"/>
	<path style="fill:#E9BC04" d="M438.362,116.611c-0.364-0.188-0.73-0.365-1.111-0.517   C437.631,116.246,437.998,116.424,438.362,116.611z" data-original="#EEBF00" class="active-path" data-old_color="#E0B401"/>
	<path style="fill:#E9BC04" d="M434.153,115.277c-0.42-0.061-0.846-0.099-1.279-0.126   C433.306,115.177,433.733,115.216,434.153,115.277z" data-original="#EEBF00" class="active-path" data-old_color="#E0B401"/>
	<path style="fill:#E9BC04" d="M436.333,115.773c-0.392-0.123-0.79-0.23-1.197-0.318   C435.542,115.544,435.941,115.651,436.333,115.773z" data-original="#EEBF00" class="active-path" data-old_color="#E0B401"/>
	<path style="fill:#E9BC04" d="M430.485,115.174c0.458-0.034,0.913-0.063,1.36-0.063   C431.398,115.112,430.943,115.14,430.485,115.174z" data-original="#EEBF00" class="active-path" data-old_color="#E0B401"/>
	<path style="fill:#E9BC04" d="M421.749,117.604c-0.876,0.411-1.754,0.865-2.633,1.373   C419.995,118.469,420.874,118.014,421.749,117.604z" data-original="#EEBF00" class="active-path" data-old_color="#E0B401"/>
	<path style="fill:#E9BC04" d="M424.36,116.523c-0.578,0.209-1.16,0.462-1.743,0.715C423.2,116.985,423.782,116.731,424.36,116.523   z" data-original="#EEBF00" class="active-path" data-old_color="#E0B401"/>
	<path style="fill:#E9BC04" d="M78.106,491.471c0.789,0.498,1.61,0.975,2.421,1.458c-0.813-0.48-1.603-0.998-2.401-1.5   L78.106,491.471z" data-original="#EEBF00" class="active-path" data-old_color="#E0B401"/>
	<path style="fill:#E9BC04" d="M76.642,490.502c-0.508-0.332-1.016-0.665-1.514-1.004   C75.629,489.839,76.136,490.169,76.642,490.502z" data-original="#EEBF00" class="active-path" data-old_color="#E0B401"/>
	<path style="fill:#E9BC04" d="M78.106,491.471l0.02-0.043c-0.494-0.31-0.996-0.607-1.484-0.927   C77.133,490.823,77.606,491.156,78.106,491.471z" data-original="#EEBF00" class="active-path" data-old_color="#E0B401"/>
	<path style="fill:#E9BC04" d="M75.128,489.497c-1.518-1.035-3.021-2.097-4.485-3.22C72.085,487.383,73.591,488.45,75.128,489.497z   " data-original="#EEBF00" class="active-path" data-old_color="#E0B401"/>
</g><polygon style="fill:#DDB201;" points="444.778,2.048 420.874,0 389.662,100.951 405.359,110.069 422.617,111.705 472.141,17.95 " data-original="#DDB201" class=""/><polygon style="fill:#FECE00;" points="448.237,15.902 420.874,0 444.778,2.048 472.141,17.95 " data-original="#FECE00" class=""/><polygon style="fill:#E9BC04" points="405.359,110.069 389.662,100.951 420.874,0 448.237,15.902 " data-original="#EEBF00" class="active-path" data-old_color="#E0B401"/><polygon style="fill:#DDB201;" points="448.237,15.902 472.141,17.95 422.617,111.705 405.359,110.069 " data-original="#DDB201" class=""/><polygon style="fill:#884D01" points="44.4,447.288 55.646,434.858 73.744,447.085 70.041,459.275 58.632,474.813 41.137,463.738   " data-original="#884D01" class=""/></g> </svg>
