<?xml version="1.0" encoding="iso-8859-1"?>
<!-- Generator: Adobe Illustrator 19.0.0, SVG Export Plug-In . SVG Version: 6.00 Build 0)  -->
<svg version="1.1" id="Capa_1" xmlns="http://www.w3.org/2000/svg" xmlns:xlink="http://www.w3.org/1999/xlink" x="0px" y="0px"
	 viewBox="0 0 512 512" style="enable-background:new 0 0 512 512;" xml:space="preserve">
<path style="fill:#495059;" d="M183.306,204.286c-3.064,0-5.939-1.891-7.048-4.937L130.506,73.647
	c-1.416-3.892,0.59-8.196,4.483-9.613c3.893-1.418,8.195,0.59,9.613,4.483l45.751,125.701c1.416,3.892-0.59,8.196-4.483,9.613
	C185.024,204.14,184.158,204.286,183.306,204.286z"/>
<path style="fill:#E683B5;" d="M354.64,217.296l47.808-195.022c1.83-7.466-2.653-15.023-10.083-16.995l-18.093-4.803
	c-7.633-2.026-15.442,2.607-17.323,10.277l-47.68,194.499L354.64,217.296z"/>
<path style="fill:#F9F1DA;" d="M256,408.549c104.545,0,211.705-66.045,189.295-161.686C421.127,143.713,330.387,143.713,256,143.713
	s-165.127,0-189.295,103.149C44.295,342.503,151.455,408.549,256,408.549z"/>
<path style="opacity:0.15;fill:#A95425;enable-background:new    ;" d="M397.483,364.149
	c-120.949-23.372-162.991-176.9-137.666-220.435c-1.277-0.001-2.549-0.001-3.817-0.001c-74.388,0-165.126,0-189.295,103.149
	C44.295,342.503,151.455,408.549,256,408.549C307.914,408.549,360.465,392.257,397.483,364.149z"/>
<path style="fill:#CE9786;" d="M474.829,313.074c0-126.906-61.407-126.906-218.829-126.906s-218.829,0-218.829,126.906
	C37.171,433.93,135.144,512,256,512S474.829,433.93,474.829,313.074z"/>
<path style="fill:#7EBBE6;" d="M216.105,59.316L216.105,59.316c-43.458,29.867-93.798,48.189-146.287,53.244l0,0
	c-8.593,0.827-14.673-8.214-10.665-15.86l47.294-90.212c2.541-4.846,8.353-6.962,13.415-4.883l94.217,38.706
	C222.065,43.592,223.22,54.426,216.105,59.316z"/>
<path style="opacity:0.15;fill:#2E4486;enable-background:new    ;" d="M69.818,112.56L69.818,112.56
	c42.246-4.068,83.097-16.738,120.091-37.097c-47.046,4.217-77.669-41.416-80.947-72.121c-1.006,0.856-1.867,1.911-2.514,3.146
	L59.153,96.7C55.145,104.346,61.224,113.388,69.818,112.56z"/>
<g>
	<ellipse style="fill:#FFFFFF;" cx="152.77" cy="319.14" rx="38.09" ry="30.334"/>
	<ellipse style="fill:#FFFFFF;" cx="359.23" cy="319.14" rx="38.09" ry="30.334"/>
</g>
<g>
	<path style="fill:#495059;" d="M193.097,293.633c-4.142,0-7.5-3.358-7.5-7.5c0-5.862-4.769-10.63-10.63-10.63
		s-10.63,4.769-10.63,10.63c0,4.142-3.358,7.5-7.5,7.5s-7.5-3.358-7.5-7.5c0-14.133,11.498-25.63,25.63-25.63
		s25.63,11.498,25.63,25.63C200.597,290.275,197.239,293.633,193.097,293.633z"/>
	<path style="fill:#495059;" d="M355.164,293.633c-4.142,0-7.5-3.358-7.5-7.5c0-5.862-4.769-10.63-10.63-10.63
		c-5.862,0-10.63,4.769-10.63,10.63c0,4.142-3.358,7.5-7.5,7.5s-7.5-3.358-7.5-7.5c0-14.133,11.498-25.63,25.63-25.63
		s25.63,11.498,25.63,25.63C362.664,290.275,359.306,293.633,355.164,293.633z"/>
	<path style="fill:#495059;" d="M256,323.585c-9.538,0-18.608-4.131-24.886-11.334c-2.721-3.123-2.396-7.86,0.727-10.582
		c3.123-2.721,7.859-2.397,10.582,0.727c3.428,3.934,8.376,6.189,13.578,6.189s10.15-2.256,13.578-6.189
		c2.721-3.123,7.458-3.447,10.582-0.727c3.122,2.722,3.448,7.459,0.727,10.582C274.608,319.454,265.538,323.585,256,323.585z"/>
</g>
<g>
	<path style="opacity:0.15;fill:#A95425;enable-background:new    ;" d="M407.094,460.962
		c-249.747-2.033-305.75-170.983-241.691-273.426C74.462,192.357,37.17,214.188,37.17,313.074C37.171,433.93,135.144,512,256,512
		C314.597,512,367.814,493.646,407.094,460.962z"/>
	<g style="opacity:0.15;">
		<path style="fill:#A95425;" d="M136.525,426.032c-2.519,0-4.978-1.268-6.395-3.57c-5.672-9.217-14.452-30.085-16.185-45.292
			c-0.469-4.115,2.487-7.832,6.603-8.301c4.117-0.476,7.831,2.487,8.301,6.603c1.391,12.201,9.254,31.324,14.057,39.128
			c2.17,3.528,1.071,8.147-2.457,10.318C139.223,425.673,137.865,426.032,136.525,426.032z"/>
		<path style="fill:#A95425;" d="M407.091,398.522c-0.939,0-1.892-0.177-2.814-0.551c-3.839-1.556-5.69-5.929-4.134-9.768
			c2.736-6.751,7.506-28.075,7.506-33.554c0-4.142,3.358-7.5,7.5-7.5s7.5,3.358,7.5,7.5c0,7.924-5.335,31.119-8.605,39.188
			C412.863,396.753,410.055,398.522,407.091,398.522z"/>
		<path style="fill:#A95425;" d="M288.601,463.832c-1.268,0-2.553-0.322-3.731-0.999c-3.591-2.065-4.829-6.649-2.765-10.24
			c4.313-7.502,11.301-25.313,13.336-41.422c0.52-4.11,4.269-7.017,8.381-6.501c4.109,0.519,7.02,4.272,6.501,8.381
			c-2.424,19.19-10.618,39.023-15.213,47.017C293.723,462.482,291.197,463.832,288.601,463.832z"/>
	</g>
</g>
<g>
</g>
<g>
</g>
<g>
</g>
<g>
</g>
<g>
</g>
<g>
</g>
<g>
</g>
<g>
</g>
<g>
</g>
<g>
</g>
<g>
</g>
<g>
</g>
<g>
</g>
<g>
</g>
<g>
</g>
</svg>
