<?xml version="1.0" encoding="iso-8859-1"?>
<!-- Generator: Adobe Illustrator 19.0.0, SVG Export Plug-In . SVG Version: 6.00 Build 0)  -->
<svg version="1.1" id="Layer_1" xmlns="http://www.w3.org/2000/svg" xmlns:xlink="http://www.w3.org/1999/xlink" x="0px" y="0px"
	 viewBox="0 0 511.989 511.989" style="enable-background:new 0 0 511.989 511.989;" xml:space="preserve">
<path style="fill:#A0D468;" d="M110.701,168.189c3.969-31.039-23.507-98.193-30.593-99.099
	c-7.094-0.906-50.546,57.202-54.507,88.248c-3.961,31.038,11.883,58.631,35.382,61.631
	C84.483,221.961,106.748,199.235,110.701,168.189z"/>
<path style="fill:#434A54;" d="M13.476,187.196l-0.008,0.016c-0.891-0.25-1.828-0.391-2.805-0.391
	C4.772,186.821,0,191.594,0,197.485c0,4.922,3.327,9.047,7.851,10.281v0.016c0.32,0.086,32.734,8.96,70.733,21.194l6.531-20.312
	C46.671,196.298,13.805,187.29,13.476,187.196z"/>
<path style="fill:#E9573F;" d="M368.836,192.868c-53.374,1.289-117.403-69.358-175.965-69.381
	c-98.076-0.039-137.286,97.7-124.091,166.582c13.195,68.857,66.452,113.639,181.871,109.967
	c126.763-4.047,227.776-143.857,218.026-168.294C458.912,207.306,400.054,192.11,368.836,192.868z"/>
<g style="opacity:0.1;">
	<path d="M466.287,227.281c-17.327,44.835-107.028,147.958-215.636,151.427C135.232,382.38,81.975,337.599,68.78,268.725
		c-1.016-5.289-1.719-10.758-2.109-16.335c-0.883,12.983-0.172,25.757,2.109,37.679c13.195,68.857,66.452,113.639,181.871,109.967
		c126.763-4.047,227.776-143.857,218.026-168.294C468.053,230.219,467.256,228.734,466.287,227.281z"/>
</g>
<path style="fill:#FC6E51;" d="M383.992,442.909c70.687,0,127.997-57.295,127.997-127.997H255.995
	C255.995,385.614,313.306,442.909,383.992,442.909z"/>
<path style="fill:#FFCE54;" d="M383.992,432.237c64.796,0,117.325-52.529,117.325-117.325H266.659
	C266.659,379.708,319.181,432.237,383.992,432.237z"/>
<g style="opacity:0.1;">
	<path d="M458.646,314.912c0,0,0,0,0,0.016c0,5.875,4.781,10.656,10.672,10.656s10.672-4.781,10.672-10.656c0-0.016,0-0.016,0-0.016
		H458.646z"/>
	<path d="M415.991,314.928c0,5.875,4.781,10.656,10.656,10.656c5.906,0,10.672-4.781,10.672-10.656c0-0.016,0-0.016,0-0.016h-21.328
		C415.991,314.912,415.991,314.912,415.991,314.928z"/>
	<path d="M373.32,314.928c0,5.875,4.781,10.656,10.672,10.656c5.89,0,10.655-4.781,10.655-10.656c0-0.016,0-0.016,0-0.016H373.32
		C373.32,314.912,373.32,314.912,373.32,314.928z"/>
	<path d="M330.649,314.928c0,5.875,4.781,10.656,10.672,10.656s10.672-4.781,10.672-10.656c0-0.016,0-0.016,0-0.016h-21.344
		C330.649,314.912,330.649,314.912,330.649,314.928z"/>
	<path d="M287.994,314.928c0,5.875,4.781,10.656,10.655,10.656c5.906,0,10.672-4.781,10.672-10.656c0-0.016,0-0.016,0-0.016h-21.327
		C287.994,314.912,287.994,314.912,287.994,314.928z"/>
</g>
<g>
</g>
<g>
</g>
<g>
</g>
<g>
</g>
<g>
</g>
<g>
</g>
<g>
</g>
<g>
</g>
<g>
</g>
<g>
</g>
<g>
</g>
<g>
</g>
<g>
</g>
<g>
</g>
<g>
</g>
</svg>
